<svg  width="55px" height="45px">
<path fill-rule="evenodd"  fill="rgb(38, 175, 95)"
 d="M53.904,37.086 L34.585,37.086 L34.585,42.793 L38.471,42.793 C39.077,42.793 39.567,43.286 39.567,43.896 C39.567,44.505 39.077,44.998 38.471,44.998 L16.528,44.998 C15.923,44.998 15.433,44.504 15.433,43.896 C15.433,43.286 15.923,42.793 16.528,42.793 L20.415,42.793 L20.415,37.086 L1.096,37.086 C0.490,37.086 -0.000,36.592 -0.000,35.983 L-0.000,1.101 C-0.000,0.492 0.490,-0.001 1.096,-0.001 L53.904,-0.001 C54.509,-0.001 55.000,0.492 55.000,1.101 L55.000,35.983 C55.000,36.592 54.509,37.086 53.904,37.086 ZM22.606,42.793 L32.394,42.793 L32.394,37.086 L22.606,37.086 L22.606,42.793 ZM52.809,2.204 L2.191,2.204 L2.191,34.880 L52.809,34.880 L52.809,2.204 ZM5.989,4.784 L25.637,4.784 C26.242,4.784 26.733,5.278 26.733,5.886 L26.733,20.141 C26.733,20.750 26.242,21.243 25.637,21.243 L5.989,21.243 C5.384,21.243 4.893,20.750 4.893,20.141 L4.893,5.886 C4.893,5.278 5.384,4.784 5.989,4.784 ZM18.643,18.932 C18.676,18.966 18.706,19.001 18.734,19.038 L24.541,19.038 L24.542,19.038 L24.542,16.288 L21.023,12.747 L16.761,17.038 L18.643,18.932 ZM15.648,19.038 L12.167,15.532 L8.685,19.038 L15.648,19.038 ZM7.084,17.529 L11.392,13.193 C11.820,12.762 12.513,12.762 12.941,13.193 L15.211,15.478 L20.248,10.407 C20.676,9.977 21.370,9.976 21.798,10.407 L24.541,13.169 L24.541,6.990 L7.084,6.990 L7.084,17.529 ZM5.989,24.673 L28.302,24.673 L29.841,19.554 C29.842,19.551 29.843,19.549 29.844,19.546 L29.844,19.546 C29.894,19.377 29.986,19.218 30.118,19.085 L44.335,4.774 C45.344,3.758 46.986,3.758 47.996,4.774 L49.979,6.770 C50.468,7.262 50.737,7.917 50.737,8.613 C50.737,9.309 50.468,9.964 49.979,10.456 L35.762,24.767 C35.634,24.896 35.476,24.990 35.305,25.042 L35.305,25.043 L29.600,26.780 C29.463,26.843 29.310,26.879 29.150,26.879 L29.116,26.879 C29.116,26.879 29.116,26.879 29.115,26.879 C29.115,26.879 29.115,26.879 29.114,26.879 L5.989,26.879 C5.384,26.879 4.893,26.385 4.893,25.776 C4.893,25.167 5.384,24.673 5.989,24.673 ZM48.430,8.896 C48.531,8.794 48.546,8.675 48.546,8.614 C48.546,8.551 48.531,8.432 48.430,8.330 L46.447,6.333 C46.292,6.177 46.039,6.177 45.884,6.333 L45.114,7.110 L47.659,9.672 L48.430,8.896 ZM46.110,11.231 L43.564,8.669 L32.442,19.865 L34.988,22.427 L46.110,11.231 ZM32.919,23.465 L31.411,21.947 L30.757,24.123 L32.919,23.465 ZM5.989,29.977 L44.263,29.977 C44.868,29.977 45.358,30.470 45.358,31.080 C45.358,31.688 44.868,32.182 44.263,32.182 L5.989,32.182 C5.384,32.182 4.893,31.688 4.893,31.080 C4.893,30.470 5.384,29.977 5.989,29.977 ZM48.536,29.977 L49.127,29.977 C49.733,29.977 50.223,30.470 50.223,31.080 C50.223,31.688 49.733,32.182 49.127,32.182 L48.536,32.182 C47.931,32.182 47.440,31.688 47.440,31.080 C47.440,30.470 47.931,29.977 48.536,29.977 Z"/>
</svg>