<svg xmlns="http://www.w3.org/2000/svg" width="55" height="45" viewBox="0 0 55 45">
  <metadata><?xpacket begin="﻿" id="W5M0MpCehiHzreSzNTczkc9d"?>
<x:xmpmeta xmlns:x="adobe:ns:meta/" x:xmptk="Adobe XMP Core 5.6-c138 79.159824, 2016/09/14-01:09:01        ">
   <rdf:RDF xmlns:rdf="http://www.w3.org/1999/02/22-rdf-syntax-ns#">
      <rdf:Description rdf:about=""/>
   </rdf:RDF>
</x:xmpmeta>
                                                                                                    
                                                                                                    
                                                                                                    
                                                                                                    
                                                                                                    
                                                                                                    
                                                                                                    
                                                                                                    
                                                                                                    
                                                                                                    
                                                                                                    
                                                                                                    
                                                                                                    
                                                                                                    
                                                                                                    
                                                                                                    
                                                                                                    
                                                                                                    
                                                                                                    
                                                                                                    
                           
<?xpacket end="w"?></metadata>
<defs>
    <style>
      .cls-1 {
        fill: #26af5f;
        fill-rule: evenodd;
      }
    </style>
  </defs>
  <path class="cls-1" d="M1382.9,1383h-52.8a1.1,1.1,0,0,0-1.1,1.1v34.88a1.105,1.105,0,0,0,1.1,1.11h19.31v5.7h-3.88a1.105,1.105,0,0,0,0,2.21h21.94a1.105,1.105,0,0,0,0-2.21h-3.88v-5.7h19.31a1.105,1.105,0,0,0,1.1-1.11V1384.1A1.1,1.1,0,0,0,1382.9,1383Zm-21.51,42.79h-9.78v-5.7h9.78v5.7Zm20.42-7.91h-50.62V1385.2h50.62v32.68h0Zm-27.17-30.1h-19.65a1.105,1.105,0,0,0-1.1,1.11v14.25a1.1,1.1,0,0,0,1.1,1.1h19.65a1.1,1.1,0,0,0,1.09-1.1v-14.25A1.1,1.1,0,0,0,1354.64,1387.78Zm-16.96,14.26,3.49-3.51,3.48,3.51h-6.97Zm15.86,0h-5.81a0.436,0.436,0,0,0-.09-0.11l-1.88-1.89,4.26-4.29,3.52,3.54v2.75h0Zm0-5.87-2.74-2.76a1.092,1.092,0,0,0-1.55,0l-5.04,5.07-2.27-2.29a1.092,1.092,0,0,0-1.55,0l-4.31,4.34v-10.54h17.46v6.18Zm25.44-6.4-1.98-2a2.6,2.6,0,0,0-3.67,0l-14.21,14.31a1.2,1.2,0,0,0-.28.47h0l-1.54,5.12h-22.31a1.105,1.105,0,0,0,0,2.21h23.16a1.138,1.138,0,0,0,.45-0.1l5.7-1.74h0.01a1.046,1.046,0,0,0,.45-0.27l14.22-14.31A2.619,2.619,0,0,0,1378.98,1389.77Zm-19.22,17.35,0.65-2.17,1.51,1.51Zm4.23-1.69-2.55-2.56,11.12-11.2,2.55,2.56Zm13.44-13.53-0.77.77-2.55-2.56,0.77-.78a0.417,0.417,0,0,1,.57,0l1.98,2a0.407,0.407,0,0,1,.12.28A0.427,0.427,0,0,1,1377.43,1391.9Zm-4.17,21.08h-38.27a1.1,1.1,0,1,0,0,2.2h38.27A1.1,1.1,0,0,0,1373.26,1412.98Zm4.87,0h-0.59a1.1,1.1,0,1,0,0,2.2h0.59A1.1,1.1,0,0,0,1378.13,1412.98Z" transform="translate(-1329 -1383)"/>
</svg>
